<svg width="20" height="20" viewBox="0 0 20 20" fill="none" xmlns="http://www.w3.org/2000/svg">
<path d="M1.66675 5.79199C1.66675 5.05616 1.66675 4.68866 1.72508 4.38199C1.84943 3.72353 2.16936 3.11782 2.64312 2.64391C3.11689 2.17 3.72249 1.84989 4.38091 1.72533C4.68841 1.66699 5.05675 1.66699 5.79175 1.66699C6.11341 1.66699 6.27508 1.66699 6.43008 1.68116C7.09762 1.74385 7.73074 2.00639 8.24675 2.43449C8.36675 2.53366 8.48008 2.64699 8.70841 2.87533L9.16675 3.33366C9.84675 4.01366 10.1867 4.35366 10.5934 4.57949C10.8169 4.70407 11.054 4.8025 11.3001 4.87283C11.7484 5.00033 12.2292 5.00033 13.1901 5.00033H13.5017C15.6951 5.00033 16.7926 5.00033 17.5051 5.64199C17.5709 5.70033 17.6334 5.76283 17.6917 5.82866C18.3334 6.54116 18.3334 7.63866 18.3334 9.83199V11.667C18.3334 14.8095 18.3334 16.3812 17.3567 17.357C16.3809 18.3337 14.8092 18.3337 11.6667 18.3337H8.33342C5.19091 18.3337 3.61925 18.3337 2.64341 17.357C1.66675 16.3812 1.66675 14.8095 1.66675 11.667V5.79199Z" stroke="current" stroke-width="1.5"/>
</svg>
