<svg width="16" height="16" viewBox="0 0 16 16" fill="none" xmlns="http://www.w3.org/2000/svg">
<path d="M4.16667 8.00033C4.16667 8.22134 4.07887 8.4333 3.92259 8.58958C3.76631 8.74586 3.55435 8.83366 3.33333 8.83366C3.11232 8.83366 2.90036 8.74586 2.74408 8.58958C2.5878 8.4333 2.5 8.22134 2.5 8.00033C2.5 7.77931 2.5878 7.56735 2.74408 7.41107C2.90036 7.25479 3.11232 7.16699 3.33333 7.16699C3.55435 7.16699 3.76631 7.25479 3.92259 7.41107C4.07887 7.56735 4.16667 7.77931 4.16667 8.00033ZM8.83333 8.00033C8.83333 8.22134 8.74554 8.4333 8.58926 8.58958C8.43298 8.74586 8.22101 8.83366 8 8.83366C7.77899 8.83366 7.56703 8.74586 7.41074 8.58958C7.25446 8.4333 7.16667 8.22134 7.16667 8.00033C7.16667 7.77931 7.25446 7.56735 7.41074 7.41107C7.56703 7.25479 7.77899 7.16699 8 7.16699C8.22101 7.16699 8.43298 7.25479 8.58926 7.41107C8.74554 7.56735 8.83333 7.77931 8.83333 8.00033ZM13.5 8.00033C13.5 8.22134 13.4122 8.4333 13.2559 8.58958C13.0996 8.74586 12.8877 8.83366 12.6667 8.83366C12.4457 8.83366 12.2337 8.74586 12.0774 8.58958C11.9211 8.4333 11.8333 8.22134 11.8333 8.00033C11.8333 7.77931 11.9211 7.56735 12.0774 7.41107C12.2337 7.25479 12.4457 7.16699 12.6667 7.16699C12.8877 7.16699 13.0996 7.25479 13.2559 7.41107C13.4122 7.56735 13.5 7.77931 13.5 8.00033Z" fill="black" stroke="current"/>
</svg>
