<svg width="40" height="40" viewBox="0 0 40 40" fill="none" xmlns="http://www.w3.org/2000/svg">
<path d="M11.6668 20H10.0002C6.85683 20 5.28683 20 4.31016 20.9767C3.3335 21.9533 3.3335 23.5233 3.3335 26.6667V30C3.3335 33.1433 3.3335 34.7133 4.31016 35.69C5.28683 36.6667 6.85683 36.6667 10.0002 36.6667H13.3335C16.4768 36.6667 18.0468 36.6667 19.0235 35.69C20.0002 34.7133 20.0002 33.1433 20.0002 30V28.3333" stroke="#0091FF" stroke-width="1.5"/>
<path d="M20.0003 11.666H18.3337C15.1903 11.666 13.6203 11.666 12.6437 12.6427C11.667 13.6193 11.667 15.1893 11.667 18.3327V21.666C11.667 24.8093 11.667 26.3793 12.6437 27.356C13.6203 28.3327 15.1903 28.3327 18.3337 28.3327H21.667C24.8103 28.3327 26.3803 28.3327 27.357 27.356C28.3337 26.3793 28.3337 24.8093 28.3337 21.666V19.9993" stroke="#0091FF" stroke-width="1.5"/>
<path d="M20 9.99967C20 6.85634 20 5.28634 20.9767 4.30967C21.9533 3.33301 23.5233 3.33301 26.6667 3.33301H30C33.1433 3.33301 34.7133 3.33301 35.69 4.30967C36.6667 5.28634 36.6667 6.85634 36.6667 9.99967V13.333C36.6667 16.4763 36.6667 18.0463 35.69 19.023C34.7133 19.9997 33.1433 19.9997 30 19.9997H26.6667C23.5233 19.9997 21.9533 19.9997 20.9767 19.023C20 18.0463 20 16.4763 20 13.333V9.99967Z" stroke="#0091FF" stroke-width="1.5"/>
</svg>
